<svg xmlns="http://www.w3.org/2000/svg" viewBox="0 0 100 100" fill="none" stroke="currentColor" stroke-width="1.5" stroke-linecap="round" stroke-linejoin="round">
  <!-- Ground reference grid lines -->
  <line x1="10" y1="85" x2="90" y2="85" stroke-width="2" />
  <line x1="15" y1="90" x2="85" y2="90" opacity="0.4" />
  
  <!-- Castle Tower Body -->
  <path d="M 30 85 L 30 35 L 25 35 L 25 25 L 35 25 L 35 30 L 45 30 L 45 25 L 55 25 L 55 30 L 65 30 L 65 25 L 75 25 L 75 35 L 70 35 L 70 85 Z" stroke-width="2" />
  
  <!-- Door / Archway -->
  <path d="M 42 85 L 42 65 C 42 58, 58 58, 58 65 L 58 85" stroke-width="2" />
  
  <!-- Windows -->
  <rect x="36" y="45" width="8" height="12" rx="4" />
  <rect x="56" y="45" width="8" height="12" rx="4" />
  
  <!-- Architectural Dimension Guidelines (STEM theme) -->
  <path d="M 20 25 L 15 25 M 20 85 L 15 85" opacity="0.5" />
  <line x1="17" y1="25" x2="17" y2="85" stroke-dasharray="2 2" opacity="0.5" />
  <path d="M 15 30 L 17 25 L 19 30 M 15 80 L 17 85 L 19 80" opacity="0.5" />
</svg>
